
      <svg width="100%" height="100%" xmlns="http://www.w3.org/2000/svg" xmlns:xlink="http://www.w3.org/1999/xlink">
        <rect x="0" y="0" width="30" height="30" fill="#64a9ba" /><rect x="30" y="0" width="30" height="30" fill="#ffffff" /><rect x="60" y="0" width="30" height="30" fill="#6acda2" /><rect x="90" y="0" width="30" height="30" fill="#ffffff" /><rect x="120" y="0" width="30" height="30" fill="#64a9ba" /><rect x="0" y="30" width="30" height="30" fill="#9ed462" /><rect x="30" y="30" width="30" height="30" fill="#7f8cd6" /><rect x="60" y="30" width="30" height="30" fill="#64a9ba" /><rect x="90" y="30" width="30" height="30" fill="#7f8cd6" /><rect x="120" y="30" width="30" height="30" fill="#9ed462" /><rect x="0" y="60" width="30" height="30" fill="#9ed462" /><rect x="30" y="60" width="30" height="30" fill="#000000" /><rect x="60" y="60" width="30" height="30" fill="#9ed462" /><rect x="90" y="60" width="30" height="30" fill="#000000" /><rect x="120" y="60" width="30" height="30" fill="#9ed462" /><rect x="0" y="90" width="30" height="30" fill="#000000" /><rect x="30" y="90" width="30" height="30" fill="#000000" /><rect x="60" y="90" width="30" height="30" fill="#000000" /><rect x="90" y="90" width="30" height="30" fill="#000000" /><rect x="120" y="90" width="30" height="30" fill="#000000" /><rect x="0" y="120" width="30" height="30" fill="#9ed462" /><rect x="30" y="120" width="30" height="30" fill="#64a9ba" /><rect x="60" y="120" width="30" height="30" fill="#000000" /><rect x="90" y="120" width="30" height="30" fill="#64a9ba" /><rect x="120" y="120" width="30" height="30" fill="#9ed462" /><rect x="0" y="150" width="30" height="30" fill="#64a9ba" /><rect x="30" y="150" width="30" height="30" fill="#6acda2" /><rect x="60" y="150" width="30" height="30" fill="#ffffff" /><rect x="90" y="150" width="30" height="30" fill="#6acda2" /><rect x="120" y="150" width="30" height="30" fill="#64a9ba" /><rect x="0" y="180" width="30" height="30" fill="#9ed462" /><rect x="30" y="180" width="30" height="30" fill="#ffffff" /><rect x="60" y="180" width="30" height="30" fill="#000000" /><rect x="90" y="180" width="30" height="30" fill="#ffffff" /><rect x="120" y="180" width="30" height="30" fill="#9ed462" /><rect x="0" y="210" width="30" height="30" fill="#000000" /><rect x="30" y="210" width="30" height="30" fill="#9ed462" /><rect x="60" y="210" width="30" height="30" fill="#64a9ba" /><rect x="90" y="210" width="30" height="30" fill="#9ed462" /><rect x="120" y="210" width="30" height="30" fill="#000000" /><rect x="0" y="240" width="30" height="30" fill="#000000" /><rect x="30" y="240" width="30" height="30" fill="#7f8cd6" /><rect x="60" y="240" width="30" height="30" fill="#6acda2" /><rect x="90" y="240" width="30" height="30" fill="#7f8cd6" /><rect x="120" y="240" width="30" height="30" fill="#000000" />
      </svg>
    